<?xml version="1.0"?>
<svg xmlns="http://www.w3.org/2000/svg" xmlns:xlink="http://www.w3.org/1999/xlink" xmlns:svgjs="http://svgjs.com/svgjs" version="1.1" width="512" height="512" x="0" y="0" viewBox="0 0 470 470.43298" style="enable-background:new 0 0 512 512" xml:space="preserve" class=""><g><path xmlns="http://www.w3.org/2000/svg" d="m295.78125 0c-87.273438 0-159.050781 67.632812-165.671875 153.242188-5.050781-2.6875-9.949219-5.648438-14.671875-8.878907-7.734375-5.109375-14.414062-9.523437-22.609375-10.167969-25.464844-2.011718-50.503906 7.421876-68.3125 25.738282-17.804687 18.3125-26.535156 43.605468-23.808594 69.003906 5.078125 46.214844 22.398438 138.074219 81.324219 234.023438 3.144531 5.121093 9.042969 7.867187 14.984375 6.976562 5.945313-.890625 10.777344-5.25 12.28125-11.066406l6.136719-23.777344c6.253906-24.191406 18.625-46.367188 35.925781-64.398438l2.046875-2.132812c2.273438-2.363281 6.027344-2.441406 8.402344-.179688l2.476562 2.371094c18.917969 18.105469 32.601563 40.980469 39.601563 66.214844l6.238281 22.492188c1.542969 5.769531 6.410156 10.039062 12.328125 10.824218 5.902344.835938 11.738281-1.90625 14.859375-6.984375 25.1875-41.023437 45.175781-85.019531 59.507812-130.972656 91.152344-.5625 165.132813-74.878906 165.132813-166.160156.003906-91.621094-74.542969-166.167969-166.171875-166.167969zm-70.867188 452.921875-5.609374-20.222656c-7.769532-28.011719-22.957032-53.402344-43.960938-73.5l-2.476562-2.371094c-8.753907-8.347656-22.609376-8.054687-31 .65625l-2.050782 2.132813c-19.199218 20.011718-32.933594 44.628906-39.875 71.480468l-5.535156 21.433594c-56.285156-92.542969-72.898438-180.785156-77.796875-225.339844-2.203125-20.660156 4.902344-41.226562 19.390625-56.121094 14.488281-14.890624 34.855469-22.558593 55.566406-20.921874 4.082032.320312 8.917969 3.515624 15.046875 7.566406 7.265625 5.039062 14.984375 9.394531 23.058594 13.011718 2.28125 84.335938 67.707031 153.183594 150.597656 160.890626-13.597656 42.476562-32.179687 83.195312-55.355469 121.304687zm70.867188-136.574219c-82.796875 0-150.171875-67.367187-150.171875-150.175781 0-82.804687 67.367187-150.171875 150.171875-150.171875 82.808594 0 150.175781 67.367188 150.175781 150.171875 0 82.808594-67.367187 150.175781-150.175781 150.175781zm0 0" fill="#ffffff" data-original="#000000" style="" class=""/><path xmlns="http://www.w3.org/2000/svg" d="m348.921875 185.21875h-16.851563v-6.3125c1.84375-1.5 3.566407-3.144531 5.152344-4.914062 10.90625-11.21875 16.957032-26.273438 16.847656-41.917969v-42.855469h4.851563c4.453125-.085938 8.015625-3.730469 8-8.183594-.011719-23.570312-19.058594-42.703125-42.628906-42.816406h-35.648438c-5.128906.027344-10.125 1.613281-14.332031 4.546875-22.410156 8.933594-37.148438 30.582031-37.242188 54.707031v34.597656c.074219 15.703126 6.296876 30.75 17.335938 41.917969 2.292969 2.453125 4.867188 4.632813 7.664062 6.484375v4.746094h-17.269531c-23.519531-.046875-42.640625 18.960938-42.730469 42.480469v30.605469c.058594 4.421874 3.6875 7.964843 8.109376 7.914062h173.363281c4.417969 0 7.527343-3.5 7.527343-7.914062v-30.605469c.089844-11.234375-4.3125-22.042969-12.226562-30.019531-7.914062-7.976563-18.6875-12.460938-29.921875-12.460938zm-52.609375 15.671875-18.453125-12.03125c5.8125 1.917969 11.890625 2.894531 18.007813 2.894531 6.894531-.050781 13.726562-1.289062 20.199218-3.660156v.542969zm-7.667969-146.671875h35.648438c11.714843.089844 22.007812 7.789062 25.398437 19h-61.046875c-5.25 0-9.5-4.253906-9.5-9.5s4.25-9.5 9.5-9.5zm-24.722656 14.917969c1.335937 6.058593 4.847656 11.417969 9.871094 15.0625-5.785157 5.027343-12.910157 8.261719-20.503907 9.300781.875-9.042969 4.597657-17.574219 10.632813-24.363281zm-10.851563 62.9375v-22.492188c10-.839843 25.175782-5.363281 38.402344-20.363281h46.597656v42.855469c0 23.675781-19.359374 43.679687-42.5 43.679687-23.136718 0-42.5-20.003906-42.5-43.679687zm-35 95.625c.082032-14.6875 12.042969-26.539063 26.730469-26.480469h22.46875l20.800781 13.492188v35.507812h-70zm157 22.519531h-71v-35.398438l22.148438-13.601562h22.703125c6.992187-.003906 13.699219 2.792969 18.613281 7.769531 4.914063 4.976563 7.628906 11.71875 7.535156 18.710938zm0 0" fill="#ffffff" data-original="#000000" style="" class=""/><path xmlns="http://www.w3.org/2000/svg" d="m290.804688 122.199219c0-4.417969-3.582032-8-8-8-4.417969 0-8 3.582031-8 8 .011718.242187-.109376.46875-.316407.59375s-.464843.125-.671875 0c-.207031-.125-.328125-.351563-.3125-.59375 0-4.417969-3.582031-8-8-8-4.417968 0-8 3.582031-8 8-.066406 5.992187 3.09375 11.558593 8.269532 14.574219 5.179687 3.015624 11.578124 3.015624 16.757812 0 5.179688-3.015626 8.335938-8.582032 8.273438-14.574219zm0 0" fill="#ffffff" data-original="#000000" style="" class=""/><path xmlns="http://www.w3.org/2000/svg" d="m317.40625 138.851562c9.191406-.011718 16.640625-7.460937 16.652344-16.652343 0-4.417969-3.582032-8-8-8-4.417969 0-8 3.582031-8 8 .011718.242187-.109375.46875-.316406.59375-.207032.125-.464844.125-.671876 0-.207031-.125-.328124-.351563-.3125-.59375 0-4.417969-3.582031-8-8-8-4.417968 0-8 3.582031-8 8 .007813 9.191406 7.457032 16.640625 16.648438 16.652343zm0 0" fill="#ffffff" data-original="#000000" style="" class=""/></g></svg>
